# xmcd
#
# Track frame offsets:
#	150
#	21235
#	36836
#	60387
#	79017
#	95630
#	107676
#	120091
#	138511
#	159684
#
# Disc length: 2516 seconds
#
# Revision: 0
# Processed by: cddbd v1.4PL0 Copyright (c) Steve Scherf et al.
# Submitted via: EasyCDDAExtractor 5.0.5.1
#
DISCID=7809d20a
DTITLE=Norah Jones - House of Blues, Chicago, April 16, 2002
DYEAR=2002
DGENRE=Blues
TTITLE0=Cold Cold Heart
TTITLE1=Feeling the Same Way
TTITLE2=Tennessee Waltz
TTITLE3=I've Got to See You Again
TTITLE4=Don't Know Why
TTITLE5=Seven Years
TTITLE6=Painter Song
TTITLE7=Bessie Smith
TTITLE8=Crazy
TTITLE9=Nearness of You
EXTD=
EXTT0=
EXTT1=
EXTT2=
EXTT3=
EXTT4=
EXTT5=
EXTT6=
EXTT7=
EXTT8=
EXTT9=
PLAYORDER=
